<svg viewBox="0 0 840 840" xmlns="http://www.w3.org/2000/svg">
        <rect width="900" height="900" fill="#100035"/>
		<path transform="translate(0,800) scale(1,-1)" fill="white" d="M180 70q0 6 8 10.5t18.5 8t21.5 6.5t16 6v548q-5 3 -16 5.5t-21.5 6.5t-18.5 8.5t-8 10.5t3.5 15t15.5 9h345q33 0 48.5 -4.5t15.5 -25.5q0 -12 -3 -29t-7.5 -33t-11 -27t-14.5 -11q-15 0 -20.5 13.5t-12 29t-17.5 29t-36 13.5h-153v-239l175 4q17 -1 17 -11 q0 -6 -3 -16.5t-8 -20t-12 -17t-15 -8.5l-154 14v-269q15 0 40 -0.5t48 -0.5q41 0 74 3t46 11q11 6 20.5 26t17 41.5t13 38.5t8.5 17q26 0 34 -13t8 -54q0 -18 -1 -39t-3 -38.5t-4 -29.5t-4 -12h-431q-12 0 -15.5 9t-3.5 15z"/>
</svg>